<svg xmlns="http://www.w3.org/2000/svg" xmlns:xlink="http://www.w3.org/1999/xlink" width="139" height="23" viewBox="0 0 139 23">
    <defs>
        <path id="f405e778ta" d="M0 0.743L16.412 0.743 16.412 20.968 0 20.968z"/>
        <path id="k5fp9qpzqc" d="M0 21L93.035 21 93.035 0.685 0 0.685z"/>
    </defs>
    <g fill="none" fill-rule="evenodd">
        <g>
            <g>
                <g>
                    <g transform="translate(-31.000000, -32.000000) translate(31.000000, 28.000000) translate(0.000000, 4.315000)">
                        <g>
                            <mask id="ic12qxp9ob" fill="#fff">
                                <use xlink:href="#f405e778ta"/>
                            </mask>
                            <path fill="#FF42B7" d="M14.017 9.494c.738.584 1.316 1.31 1.752 2.177.43.866.643 1.81.643 2.844 0 .88-.168 1.721-.507 2.51-.341.79-.797 1.477-1.374 2.055-.579.578-1.266 1.04-2.056 1.38-.79.341-1.624.508-2.503.508H-.002v-9.766h9.973c.456 0 .886.09 1.277.263.391.174.745.411 1.046.72.303.301.54.648.72 1.046.172.398.256.822.256 1.284 0 .456-.084.886-.257 1.284-.18.392-.416.745-.718 1.047-.301.301-.655.545-1.047.72-.392.172-.822.256-1.277.256h-6.89v-4.989H1.625v6.51h8.347c.66 0 1.284-.12 1.867-.372.591-.25 1.098-.59 1.53-1.034.436-.443.776-.957 1.033-1.547.257-.584.386-1.214.386-1.875 0-.668-.13-1.29-.386-1.875-.257-.59-.597-1.104-1.034-1.547-.43-.443-.938-.79-1.529-1.047-.584-.263-1.207-.39-1.867-.39H-.002V.742h8.618c.827 0 1.61.154 2.342.468.734.315 1.375.745 1.928 1.297.551.552.981 1.194 1.296 1.933.315.74.469 1.515.469 2.344 0 .924-.212 1.823-.635 2.71zM1.623 8.024h1.458v-4.16h5.535c.403 0 .782.076 1.13.237.353.154.655.36.912.622.255.257.461.565.615.918.162.347.239.726.239 1.137 0 .52-.11.983-.329 1.387.252.038.502.096.74.18.237.083.48.173.719.263.256-.572.384-1.175.384-1.823 0-.604-.114-1.175-.346-1.708-.231-.533-.545-1.002-.95-1.406-.405-.405-.873-.726-1.406-.957-.534-.225-1.098-.34-1.708-.34H1.623v5.65zm7.351 0c.277-.09.495-.25.662-.482.168-.225.25-.482.25-.757 0-.366-.12-.675-.372-.925-.25-.244-.546-.372-.899-.372h-3.91v2.536h4.27zm-4.268 8.173h5.265c.456 0 .854-.16 1.18-.48.335-.323.495-.727.495-1.202 0-.48-.16-.88-.495-1.2-.326-.32-.724-.482-1.18-.482H4.707v3.364z" mask="url(#ic12qxp9ob)"/>
                        </g>
                        <mask id="js9jn0qatd" fill="#fff">
                            <use xlink:href="#k5fp9qpzqc"/>
                        </mask>
                        <path fill="#FF42B7" d="M18.504 20.974h1.631V.743h-1.631v20.231zm3.115 0h1.624V.743h-1.624v20.231zM26.716 2.367V.742h18.036v1.625h-9.747v18.607h-1.624V5.462h-6.665v-1.63h6.665V2.366h-6.665zm18.036 1.464v1.631h-6.665v15.512h-1.624V3.831h8.29zM61.94 15.703h-.025v3.891c-.771.436-1.6.783-2.48 1.033-.885.251-1.81.373-2.78.373-1.431 0-2.78-.27-4.037-.803-1.26-.533-2.357-1.258-3.288-2.176-.937-.925-1.676-1.99-2.222-3.217-.54-1.226-.81-2.536-.81-3.936 0-1.393.27-2.709.81-3.942.546-1.233 1.285-2.305 2.222-3.217.93-.912 2.029-1.63 3.288-2.17 1.258-.526 2.606-.796 4.038-.796 1.412 0 2.735.256 3.974.77 1.246.514 2.33 1.227 3.268 2.126l-1.13 1.162c-.79-.758-1.701-1.348-2.741-1.779-1.034-.437-2.164-.655-3.371-.655-1.214 0-2.35.232-3.403.681-1.06.45-1.978 1.06-2.767 1.83-.79.77-1.413 1.67-1.875 2.696-.463 1.034-.687 2.138-.687 3.314 0 1.174.224 2.273.687 3.306.462 1.028 1.085 1.926 1.875 2.696.789.771 1.708 1.381 2.767 1.818 1.053.443 2.189.661 3.403.661 1.304 0 2.53-.263 3.685-.796v-1.63c-.532.314-1.11.558-1.733.731-.623.174-1.278.263-1.952.263-.995 0-1.926-.186-2.8-.552-.873-.372-1.637-.873-2.298-1.522-.661-.642-1.181-1.393-1.554-2.247-.378-.854-.565-1.772-.565-2.748 0-.976.187-1.888.565-2.742.373-.854.893-1.605 1.554-2.247.66-.648 1.425-1.155 2.299-1.522.873-.365 1.804-.55 2.799-.55.989 0 1.92.178 2.793.538.873.36 1.637.86 2.299 1.502l-1.13 1.162c-.514-.48-1.111-.86-1.792-1.149-.674-.282-1.4-.424-2.17-.424-.777 0-1.496.142-2.176.424-.681.29-1.272.674-1.78 1.162-.506.488-.905 1.06-1.2 1.727-.29.655-.436 1.368-.436 2.12 0 .757.147 1.463.437 2.111.294.655.693 1.227 1.2 1.727.507.495 1.098.887 1.779 1.176.68.282 1.399.424 2.176.424.713 0 1.38-.123 2.01-.36.623-.238 1.18-.572 1.675-.995v-.109h-2.946v-1.708h4.52v2.536l.025.032zm2.896-5.58v6.954h-.083l.025.032.058-.032c-.481.61-1.021 1.156-1.631 1.631v-6.87h-5.81v-1.715h7.44zM66.293 20.974h1.625V.743h-1.625v20.231zm3.114 0h1.625V.743h-1.625v20.231zM93.035.743v16.34L76.097 3.999v16.976h-1.623V.684L88.296 11.37V.743h1.625v11.865l1.49 1.163V.743h1.624zm0 18.19V21L79.213 10.29v10.684h-1.624V6.977l15.448 11.956z" mask="url(#js9jn0qatd)"/>
                    </g>
                    <text fill="#212B36" font-family="PingFangTC-Regular, PingFang TC" font-size="16" letter-spacing="2" transform="translate(-31.000000, -32.000000) translate(31.000000, 28.000000) translate(0.000000, 4.315000)">
                        <tspan x="103" y="17.685">幣竟</tspan>
                    </text>
                </g>
            </g>
        </g>
    </g>
</svg>
